<svg xmlns="http://www.w3.org/2000/svg" viewBox="0 0 1920 900" role="img" aria-label="">
  <defs>
    <linearGradient id="lineGradient" x1="0" y1="0" x2="1" y2="1">
      <stop offset="0" stop-color="#45e2ff" stop-opacity="0.78"/>
      <stop offset="0.5" stop-color="#1a9fff" stop-opacity="0.46"/>
      <stop offset="1" stop-color="#71f6ff" stop-opacity="0.34"/>
    </linearGradient>
    <linearGradient id="deepFade" x1="0" y1="0" x2="1" y2="1">
      <stop offset="0" stop-color="#062d6f" stop-opacity="0.8"/>
      <stop offset="1" stop-color="#062d6f" stop-opacity="0"/>
    </linearGradient>
    <filter id="glow" x="-40%" y="-40%" width="180%" height="180%">
      <feGaussianBlur stdDeviation="2.8" result="blur"/>
      <feMerge>
        <feMergeNode in="blur"/>
        <feMergeNode in="SourceGraphic"/>
      </feMerge>
    </filter>
    <symbol id="hex" viewBox="-30 -26 60 52">
      <path d="M0 -25 22 -13 22 13 0 25 -22 13 -22 -13Z"/>
    </symbol>
  </defs>

  <rect width="1920" height="900" fill="url(#deepFade)" opacity="0.28"/>

  <g fill="none" stroke="url(#lineGradient)" stroke-linecap="round" stroke-linejoin="round">
    <g opacity="0.34" stroke-width="1.2">
      <path d="M0 206h112l42 42h130l34 34h198"/>
      <path d="M0 252h88l42 42h138l34 34h238"/>
      <path d="M0 300h160l38 38h150l38 38h230"/>
      <path d="M82 370h156l44 44h156l34 34h250"/>
      <path d="M185 530h160l42 42h200l34 34h180"/>
      <path d="M0 608h238l44 44h182"/>
      <path d="M0 656h196l30 30h172"/>
    </g>

    <g opacity="0.34" stroke-width="1.2">
      <path d="M1920 84h-162l-42 42h-190l-36 36h-260"/>
      <path d="M1920 132h-104l-42 42h-156l-42 42h-300"/>
      <path d="M1920 188h-216l-34 34h-196l-42 42h-256"/>
      <path d="M1766 328h-196l-34 34h-222l-42 42h-238"/>
      <path d="M1920 432h-258l-32 32h-174"/>
    </g>

    <g opacity="0.26" stroke-width="1">
      <use href="#hex" x="72" y="354"/>
      <use href="#hex" x="132" y="320"/>
      <use href="#hex" x="186" y="352"/>
      <use href="#hex" x="248" y="318"/>
      <use href="#hex" x="308" y="354"/>
      <use href="#hex" x="368" y="320"/>
      <use href="#hex" x="1546" y="130"/>
      <use href="#hex" x="1606" y="96"/>
      <use href="#hex" x="1666" y="130"/>
      <use href="#hex" x="1728" y="96"/>
      <use href="#hex" x="1788" y="130"/>
    </g>
  </g>

  <g fill="#57e8ff" opacity="0.5" filter="url(#glow)">
    <circle cx="112" cy="206" r="3"/>
    <circle cx="284" cy="248" r="3"/>
    <circle cx="516" cy="282" r="3"/>
    <circle cx="616" cy="376" r="3"/>
    <circle cx="722" cy="448" r="3"/>
    <circle cx="801" cy="606" r="2.7"/>
    <circle cx="1548" cy="84" r="3"/>
    <circle cx="1490" cy="162" r="2.8"/>
    <circle cx="1276" cy="216" r="2.8"/>
    <circle cx="1034" cy="404" r="2.8"/>
  </g>

  <g fill="#57e8ff" opacity="0.22">
    <rect x="70" y="414" width="9" height="5" rx="1"/>
    <rect x="90" y="414" width="9" height="5" rx="1"/>
    <rect x="110" y="414" width="9" height="5" rx="1"/>
    <rect x="130" y="414" width="9" height="5" rx="1"/>
    <rect x="150" y="414" width="9" height="5" rx="1"/>
    <rect x="1710" y="184" width="9" height="5" rx="1"/>
    <rect x="1730" y="184" width="9" height="5" rx="1"/>
    <rect x="1750" y="184" width="9" height="5" rx="1"/>
    <rect x="1770" y="184" width="9" height="5" rx="1"/>
    <rect x="1790" y="184" width="9" height="5" rx="1"/>
  </g>
</svg>
